<?xml version="1.0" encoding="UTF-8" standalone="no"?>
<!-- Created with Inkscape (http://www.inkscape.org/) -->

<svg
   width="200mm"
   height="150mm"
   viewBox="0 0 200 150"
   version="1.1"
   id="svg1"
   inkscape:version="1.4.2 (ebf0e940d0, 2025-05-08)"
   sodipodi:docname="drawing.svg"
   xmlns:inkscape="http://www.inkscape.org/namespaces/inkscape"
   xmlns:sodipodi="http://sodipodi.sourceforge.net/DTD/sodipodi-0.dtd"
   xmlns="http://www.w3.org/2000/svg"
   xmlns:svg="http://www.w3.org/2000/svg">
  <sodipodi:namedview
     id="namedview1"
     pagecolor="#505050"
     bordercolor="#ffffff"
     borderopacity="1"
     inkscape:showpageshadow="0"
     inkscape:pageopacity="0"
     inkscape:pagecheckerboard="1"
     inkscape:deskcolor="#505050"
     inkscape:document-units="mm"
     inkscape:zoom="0.82685726"
     inkscape:cx="345.88799"
     inkscape:cy="253.9737"
     inkscape:window-width="1600"
     inkscape:window-height="900"
     inkscape:window-x="0"
     inkscape:window-y="0"
     inkscape:window-maximized="1"
     inkscape:current-layer="layer1" />
  <defs
     id="defs1" />
  <g
     inkscape:label="Layer 1"
     inkscape:groupmode="layer"
     id="layer1">
    <g
       id="g4"
       inkscape:label="tesselationPattern">
      <path
         style="display:inline;fill:#460000;stroke-width:0.264583;fill-opacity:1"
         d="M 50,50 100,25 V 75 L 50,100 Z"
         id="path3"
         sodipodi:nodetypes="ccccc"
         inkscape:label="rightRhombus" />
      <path
         style="fill:#940505;stroke-width:0.264583;fill-opacity:1"
         d="m 0,25 50,25 v 50 L 0,75 Z"
         id="path2"
         sodipodi:nodetypes="ccccc"
         inkscape:label="leftRhombus" />
      <path
         style="fill:#c50c0c;stroke-width:0.264583;fill-opacity:1"
         d="M 0,25 50,0 100,25 50,50 Z"
         id="path4"
         sodipodi:nodetypes="ccccc"
         inkscape:label="topRhombus" />
    </g>
    <g
       id="g7"
       inkscape:label="tesselationPattern"
       transform="translate(100)">
      <path
         style="display:inline;fill:#460000;stroke-width:0.264583;fill-opacity:1"
         d="M 50,50 100,25 V 75 L 50,100 Z"
         id="path5"
         sodipodi:nodetypes="ccccc"
         inkscape:label="rightRhombus" />
      <path
         style="fill:#940505;stroke-width:0.264583;fill-opacity:1"
         d="m 0,25 50,25 v 50 L 0,75 Z"
         id="path6"
         sodipodi:nodetypes="ccccc"
         inkscape:label="leftRhombus" />
      <path
         style="fill:#c50c0c;stroke-width:0.264583;fill-opacity:1"
         d="M 0,25 50,0 100,25 50,50 Z"
         id="path7"
         sodipodi:nodetypes="ccccc"
         inkscape:label="topRhombus" />
    </g>
    <g
       id="g10"
       inkscape:label="tesselationPattern"
       transform="translate(50,75)">
      <path
         style="display:inline;fill:#460000;stroke-width:0.264583;fill-opacity:1"
         d="M 50,50 100,25 V 75 L 50,100 Z"
         id="path8"
         sodipodi:nodetypes="ccccc"
         inkscape:label="rightRhombus" />
      <path
         style="fill:#940505;stroke-width:0.264583;fill-opacity:1"
         d="m 0,25 50,25 v 50 L 0,75 Z"
         id="path9"
         sodipodi:nodetypes="ccccc"
         inkscape:label="leftRhombus" />
      <path
         style="fill:#c50c0c;stroke-width:0.264583;fill-opacity:1"
         d="M 0,25 50,0 100,25 50,50 Z"
         id="path10"
         sodipodi:nodetypes="ccccc"
         inkscape:label="topRhombus" />
    </g>
    <g
       id="g13"
       inkscape:label="tesselationPattern"
       transform="translate(-50,75)">
      <path
         style="display:inline;fill:#460000;stroke-width:0.264583;fill-opacity:1"
         d="M 50,50 100,25 V 75 L 50,100 Z"
         id="path11"
         sodipodi:nodetypes="ccccc"
         inkscape:label="rightRhombus" />
      <path
         style="fill:#940505;stroke-width:0.264583;fill-opacity:1"
         d="m 0,25 50,25 v 50 L 0,75 Z"
         id="path12"
         sodipodi:nodetypes="ccccc"
         inkscape:label="leftRhombus" />
      <path
         style="fill:#c50c0c;stroke-width:0.264583;fill-opacity:1"
         d="M 0,25 50,0 100,25 50,50 Z"
         id="path13"
         sodipodi:nodetypes="ccccc"
         inkscape:label="topRhombus" />
    </g>
    <g
       id="g16"
       inkscape:label="tesselationPattern"
       transform="translate(150,75)">
      <path
         style="display:inline;fill:#460000;stroke-width:0.264583;fill-opacity:1"
         d="M 50,50 100,25 V 75 L 50,100 Z"
         id="path14"
         sodipodi:nodetypes="ccccc"
         inkscape:label="rightRhombus" />
      <path
         style="fill:#940505;stroke-width:0.264583;fill-opacity:1"
         d="m 0,25 50,25 v 50 L 0,75 Z"
         id="path15"
         sodipodi:nodetypes="ccccc"
         inkscape:label="leftRhombus" />
      <path
         style="fill:#c50c0c;stroke-width:0.264583;fill-opacity:1"
         d="M 0,25 50,0 100,25 50,50 Z"
         id="path16"
         sodipodi:nodetypes="ccccc"
         inkscape:label="topRhombus" />
    </g>
    <g
       id="g19"
       inkscape:label="tesselationPattern"
       transform="translate(-50,-75)">
      <path
         style="display:inline;fill:#460000;stroke-width:0.264583;fill-opacity:1"
         d="M 50,50 100,25 V 75 L 50,100 Z"
         id="path17"
         sodipodi:nodetypes="ccccc"
         inkscape:label="rightRhombus" />
      <path
         style="fill:#940505;stroke-width:0.264583;fill-opacity:1"
         d="m 0,25 50,25 v 50 L 0,75 Z"
         id="path18"
         sodipodi:nodetypes="ccccc"
         inkscape:label="leftRhombus" />
      <path
         style="fill:#c50c0c;stroke-width:0.264583;fill-opacity:1"
         d="M 0,25 50,0 100,25 50,50 Z"
         id="path19"
         sodipodi:nodetypes="ccccc"
         inkscape:label="topRhombus" />
    </g>
    <g
       id="g22"
       inkscape:label="tesselationPattern"
       transform="translate(150,-75)">
      <path
         style="display:inline;fill:#460000;stroke-width:0.264583;fill-opacity:1"
         d="M 50,50 100,25 V 75 L 50,100 Z"
         id="path20"
         sodipodi:nodetypes="ccccc"
         inkscape:label="rightRhombus" />
      <path
         style="fill:#940505;stroke-width:0.264583;fill-opacity:1"
         d="m 0,25 50,25 v 50 L 0,75 Z"
         id="path21"
         sodipodi:nodetypes="ccccc"
         inkscape:label="leftRhombus" />
      <path
         style="fill:#c50c0c;stroke-width:0.264583;fill-opacity:1"
         d="M 0,25 50,0 100,25 50,50 Z"
         id="path22"
         sodipodi:nodetypes="ccccc"
         inkscape:label="topRhombus" />
    </g>
    <g
       id="g25"
       inkscape:label="tesselationPattern"
       transform="translate(50,-75)">
      <path
         style="display:inline;fill:#460000;stroke-width:0.264583;fill-opacity:1"
         d="M 50,50 100,25 V 75 L 50,100 Z"
         id="path23"
         sodipodi:nodetypes="ccccc"
         inkscape:label="rightRhombus" />
      <path
         style="fill:#940505;stroke-width:0.264583;fill-opacity:1"
         d="m 0,25 50,25 v 50 L 0,75 Z"
         id="path24"
         sodipodi:nodetypes="ccccc"
         inkscape:label="leftRhombus" />
      <path
         style="fill:#c50c0c;stroke-width:0.264583;fill-opacity:1"
         d="M 0,25 50,0 100,25 50,50 Z"
         id="path25"
         sodipodi:nodetypes="ccccc"
         inkscape:label="topRhombus" />
    </g>
  </g>
</svg>
